<svg xmlns="http://www.w3.org/2000/svg" viewBox="0 0 32 32" fill="none">
  <circle cx="16" cy="16" r="14" fill="currentColor" fill-opacity="0.12"/>
  <path d="M16 6c-3.3 0-6 2.7-6 6v2H8.5a1 1 0 0 0-1 1v2a1 1 0 0 0 1 1H10v1c0 .8.2 1.6.6 2.3L9 23l1.4 1.4 2-2c.7.4 1.5.6 2.3.6h2.6c.8 0 1.6-.2 2.3-.6l2 2L23 23l-1.6-2.7c.4-.7.6-1.5.6-2.3v-1h1.5a1 1 0 0 0 1-1v-2a1 1 0 0 0-1-1H22v-2c0-3.3-2.7-6-6-6Z"
    stroke="currentColor" stroke-width="1.6" stroke-linejoin="round"/>
  <circle cx="13.2" cy="15.5" r="1.1" fill="currentColor"/>
  <circle cx="18.8" cy="15.5" r="1.1" fill="currentColor"/>
</svg>
